<svg width="600.00" height="350.00" version="1.1" xmlns="http://www.w3.org/2000/svg" xmlns:xlink="http://www.w3.org/11009/xlink">
<rect x="160.00" y="50.00" width="370.00" height="240.00" stroke="black" stroke-width="1" fill-opacity="1.0" fill="rgb(255,255,255)"/>
<rect x="315.01" y="110.00" width="30.45" height="160.00" stroke-width="0" fill-opacity="0.4" fill="rgb(255,0,0)"/>
<rect x="345.46" y="110.00" width="30.45" height="160.00" stroke-width="0" fill-opacity="0.4" fill="rgb(255,0,0)"/>
<rect x="284.56" y="110.00" width="30.45" height="160.00" stroke-width="0" fill-opacity="0.2" fill="rgb(255,0,0)"/>
<rect x="375.90" y="110.00" width="30.45" height="160.00" stroke-width="0" fill-opacity="0.2" fill="rgb(255,0,0)"/>
<line x1="345.46" y1="110.00" x2="345.46" y2="270.00" stroke="rgb(255,0,0)" stroke-width="2"/>
<rect x="160.00" y="120.00" width="370.00" height="20.00" stroke-width="0" stroke="rgb(0,0,0)" fill="rgb(99,0,0)" fill-opacity="0.05"/>
<line x1="285.89" y1="130.00" x2="336.16" y2="130.00" stroke="rgb(99,0,0)" stroke-width="2"/>
<line x1="344.16" y1="130.00" x2="394.44" y2="130.00" stroke="rgb(99,0,0)" stroke-width="2"/>
<line x1="285.89" y1="125.00" x2="285.89" y2="135.00" stroke="rgb(99,0,0)" stroke-width="2"/>
<line x1="394.44" y1="125.00" x2="394.44" y2="135.00" stroke="rgb(99,0,0)" stroke-width="2"/>
<circle cx="340.16" cy="130.00" r="5" stroke-width="0" fill="rgb(99,0,0)" fill-opacity="1"/>
<text x="150.00" y="130.00" font-family="georgia" font-style="italic" text-anchor="end" dy="0" font-size="16">OPAL</text>
<text x="150.00" y="140.00" font-family="georgia" font-style="italic" text-anchor="end" dy="4" font-size="12"/>
<rect x="160.00" y="160.00" width="370.00" height="20.00" stroke-width="0" stroke="rgb(0,0,0)" fill="rgb(99,0,0)" fill-opacity="0.05"/>
<line x1="190.58" y1="170.00" x2="240.85" y2="170.00" stroke="rgb(99,0,0)" stroke-width="2"/>
<line x1="248.85" y1="170.00" x2="299.13" y2="170.00" stroke="rgb(99,0,0)" stroke-width="2"/>
<line x1="190.58" y1="165.00" x2="190.58" y2="175.00" stroke="rgb(99,0,0)" stroke-width="2"/>
<line x1="299.13" y1="165.00" x2="299.13" y2="175.00" stroke="rgb(99,0,0)" stroke-width="2"/>
<circle cx="244.85" cy="170.00" r="5" stroke-width="0" fill="rgb(99,0,0)" fill-opacity="1"/>
<text x="150.00" y="170.00" font-family="georgia" font-style="italic" text-anchor="end" dy="0" font-size="16">Delphi</text>
<text x="150.00" y="180.00" font-family="georgia" font-style="italic" text-anchor="end" dy="4" font-size="12"/>
<rect x="160.00" y="200.00" width="370.00" height="20.00" stroke-width="0" stroke="rgb(0,0,0)" fill="rgb(99,0,0)" fill-opacity="0.05"/>
<line x1="385.17" y1="210.00" x2="436.77" y2="210.00" stroke="rgb(99,0,0)" stroke-width="2"/>
<line x1="444.77" y1="210.00" x2="496.36" y2="210.00" stroke="rgb(99,0,0)" stroke-width="2"/>
<line x1="385.17" y1="205.00" x2="385.17" y2="215.00" stroke="rgb(99,0,0)" stroke-width="2"/>
<line x1="496.36" y1="205.00" x2="496.36" y2="215.00" stroke="rgb(99,0,0)" stroke-width="2"/>
<circle cx="440.77" cy="210.00" r="5" stroke-width="0" fill="rgb(99,0,0)" fill-opacity="1"/>
<text x="150.00" y="210.00" font-family="georgia" font-style="italic" text-anchor="end" dy="0" font-size="16">L3</text>
<text x="150.00" y="220.00" font-family="georgia" font-style="italic" text-anchor="end" dy="4" font-size="12"/>
<rect x="160.00" y="240.00" width="370.00" height="20.00" stroke-width="0" stroke="rgb(0,0,0)" fill="rgb(99,0,0)" fill-opacity="0.05"/>
<line x1="287.21" y1="250.00" x2="340.13" y2="250.00" stroke="rgb(99,0,0)" stroke-width="2"/>
<line x1="348.13" y1="250.00" x2="401.05" y2="250.00" stroke="rgb(99,0,0)" stroke-width="2"/>
<line x1="287.21" y1="245.00" x2="287.21" y2="255.00" stroke="rgb(99,0,0)" stroke-width="2"/>
<line x1="401.05" y1="245.00" x2="401.05" y2="255.00" stroke="rgb(99,0,0)" stroke-width="2"/>
<circle cx="344.13" cy="250.00" r="5" stroke-width="0" fill="rgb(99,0,0)" fill-opacity="1"/>
<text x="150.00" y="250.00" font-family="georgia" font-style="italic" text-anchor="end" dy="0" font-size="16">ALEPH</text>
<text x="150.00" y="260.00" font-family="georgia" font-style="italic" text-anchor="end" dy="4" font-size="12"/>

<line x1="160.79" y1="50.00" x2="160.79" y2="55.00" stroke="rgb(0,0,0)" stroke-width="1"/>
<line x1="160.79" y1="290.00" x2="160.79" y2="285.00" stroke="rgb(0,0,0)" stroke-width="1"/>
<line x1="171.14" y1="50.00" x2="171.14" y2="55.00" stroke="rgb(0,0,0)" stroke-width="1"/>
<line x1="171.14" y1="290.00" x2="171.14" y2="285.00" stroke="rgb(0,0,0)" stroke-width="1"/>
<line x1="181.48" y1="50.00" x2="181.48" y2="55.00" stroke="rgb(0,0,0)" stroke-width="1"/>
<line x1="181.48" y1="290.00" x2="181.48" y2="285.00" stroke="rgb(0,0,0)" stroke-width="1"/>
<line x1="191.82" y1="50.00" x2="191.82" y2="55.00" stroke="rgb(0,0,0)" stroke-width="1"/>
<line x1="191.82" y1="290.00" x2="191.82" y2="285.00" stroke="rgb(0,0,0)" stroke-width="1"/>
<line x1="212.50" y1="50.00" x2="212.50" y2="55.00" stroke="rgb(0,0,0)" stroke-width="1"/>
<line x1="212.50" y1="290.00" x2="212.50" y2="285.00" stroke="rgb(0,0,0)" stroke-width="1"/>
<line x1="222.84" y1="50.00" x2="222.84" y2="55.00" stroke="rgb(0,0,0)" stroke-width="1"/>
<line x1="222.84" y1="290.00" x2="222.84" y2="285.00" stroke="rgb(0,0,0)" stroke-width="1"/>
<line x1="233.19" y1="50.00" x2="233.19" y2="55.00" stroke="rgb(0,0,0)" stroke-width="1"/>
<line x1="233.19" y1="290.00" x2="233.19" y2="285.00" stroke="rgb(0,0,0)" stroke-width="1"/>
<line x1="243.53" y1="50.00" x2="243.53" y2="55.00" stroke="rgb(0,0,0)" stroke-width="1"/>
<line x1="243.53" y1="290.00" x2="243.53" y2="285.00" stroke="rgb(0,0,0)" stroke-width="1"/>
<line x1="202.16" y1="50.00" x2="202.16" y2="65.00" stroke="rgb(0,0,0)" stroke-width="1"/>
<text x="202.16" y="305.00" text-anchor="middle" font-size="12" font-family="georgia">2.48</text>
<line x1="202.16" y1="290.00" x2="202.16" y2="275.00" stroke="rgb(0,0,0)" stroke-width="1"/>
<line x1="264.21" y1="50.00" x2="264.21" y2="55.00" stroke="rgb(0,0,0)" stroke-width="1"/>
<line x1="264.21" y1="290.00" x2="264.21" y2="285.00" stroke="rgb(0,0,0)" stroke-width="1"/>
<line x1="274.55" y1="50.00" x2="274.55" y2="55.00" stroke="rgb(0,0,0)" stroke-width="1"/>
<line x1="274.55" y1="290.00" x2="274.55" y2="285.00" stroke="rgb(0,0,0)" stroke-width="1"/>
<line x1="284.90" y1="50.00" x2="284.90" y2="55.00" stroke="rgb(0,0,0)" stroke-width="1"/>
<line x1="284.90" y1="290.00" x2="284.90" y2="285.00" stroke="rgb(0,0,0)" stroke-width="1"/>
<line x1="295.24" y1="50.00" x2="295.24" y2="55.00" stroke="rgb(0,0,0)" stroke-width="1"/>
<line x1="295.24" y1="290.00" x2="295.24" y2="285.00" stroke="rgb(0,0,0)" stroke-width="1"/>
<line x1="253.87" y1="50.00" x2="253.87" y2="65.00" stroke="rgb(0,0,0)" stroke-width="1"/>
<text x="253.87" y="305.00" text-anchor="middle" font-size="12" font-family="georgia">2.49</text>
<line x1="253.87" y1="290.00" x2="253.87" y2="275.00" stroke="rgb(0,0,0)" stroke-width="1"/>
<line x1="315.92" y1="50.00" x2="315.92" y2="55.00" stroke="rgb(0,0,0)" stroke-width="1"/>
<line x1="315.92" y1="290.00" x2="315.92" y2="285.00" stroke="rgb(0,0,0)" stroke-width="1"/>
<line x1="326.26" y1="50.00" x2="326.26" y2="55.00" stroke="rgb(0,0,0)" stroke-width="1"/>
<line x1="326.26" y1="290.00" x2="326.26" y2="285.00" stroke="rgb(0,0,0)" stroke-width="1"/>
<line x1="336.60" y1="50.00" x2="336.60" y2="55.00" stroke="rgb(0,0,0)" stroke-width="1"/>
<line x1="336.60" y1="290.00" x2="336.60" y2="285.00" stroke="rgb(0,0,0)" stroke-width="1"/>
<line x1="346.95" y1="50.00" x2="346.95" y2="55.00" stroke="rgb(0,0,0)" stroke-width="1"/>
<line x1="346.95" y1="290.00" x2="346.95" y2="285.00" stroke="rgb(0,0,0)" stroke-width="1"/>
<line x1="305.58" y1="50.00" x2="305.58" y2="65.00" stroke="rgb(0,0,0)" stroke-width="1"/>
<text x="305.58" y="305.00" text-anchor="middle" font-size="12" font-family="georgia">2.49</text>
<line x1="305.58" y1="290.00" x2="305.58" y2="275.00" stroke="rgb(0,0,0)" stroke-width="1"/>
<line x1="367.63" y1="50.00" x2="367.63" y2="55.00" stroke="rgb(0,0,0)" stroke-width="1"/>
<line x1="367.63" y1="290.00" x2="367.63" y2="285.00" stroke="rgb(0,0,0)" stroke-width="1"/>
<line x1="377.97" y1="50.00" x2="377.97" y2="55.00" stroke="rgb(0,0,0)" stroke-width="1"/>
<line x1="377.97" y1="290.00" x2="377.97" y2="285.00" stroke="rgb(0,0,0)" stroke-width="1"/>
<line x1="388.31" y1="50.00" x2="388.31" y2="55.00" stroke="rgb(0,0,0)" stroke-width="1"/>
<line x1="388.31" y1="290.00" x2="388.31" y2="285.00" stroke="rgb(0,0,0)" stroke-width="1"/>
<line x1="398.65" y1="50.00" x2="398.65" y2="55.00" stroke="rgb(0,0,0)" stroke-width="1"/>
<line x1="398.65" y1="290.00" x2="398.65" y2="285.00" stroke="rgb(0,0,0)" stroke-width="1"/>
<line x1="357.29" y1="50.00" x2="357.29" y2="65.00" stroke="rgb(0,0,0)" stroke-width="1"/>
<text x="357.29" y="305.00" text-anchor="middle" font-size="12" font-family="georgia">2.50</text>
<line x1="357.29" y1="290.00" x2="357.29" y2="275.00" stroke="rgb(0,0,0)" stroke-width="1"/>
<line x1="419.34" y1="50.00" x2="419.34" y2="55.00" stroke="rgb(0,0,0)" stroke-width="1"/>
<line x1="419.34" y1="290.00" x2="419.34" y2="285.00" stroke="rgb(0,0,0)" stroke-width="1"/>
<line x1="429.68" y1="50.00" x2="429.68" y2="55.00" stroke="rgb(0,0,0)" stroke-width="1"/>
<line x1="429.68" y1="290.00" x2="429.68" y2="285.00" stroke="rgb(0,0,0)" stroke-width="1"/>
<line x1="440.02" y1="50.00" x2="440.02" y2="55.00" stroke="rgb(0,0,0)" stroke-width="1"/>
<line x1="440.02" y1="290.00" x2="440.02" y2="285.00" stroke="rgb(0,0,0)" stroke-width="1"/>
<line x1="450.36" y1="50.00" x2="450.36" y2="55.00" stroke="rgb(0,0,0)" stroke-width="1"/>
<line x1="450.36" y1="290.00" x2="450.36" y2="285.00" stroke="rgb(0,0,0)" stroke-width="1"/>
<line x1="409.00" y1="50.00" x2="409.00" y2="65.00" stroke="rgb(0,0,0)" stroke-width="1"/>
<text x="409.00" y="305.00" text-anchor="middle" font-size="12" font-family="georgia">2.50</text>
<line x1="409.00" y1="290.00" x2="409.00" y2="275.00" stroke="rgb(0,0,0)" stroke-width="1"/>
<line x1="471.05" y1="50.00" x2="471.05" y2="55.00" stroke="rgb(0,0,0)" stroke-width="1"/>
<line x1="471.05" y1="290.00" x2="471.05" y2="285.00" stroke="rgb(0,0,0)" stroke-width="1"/>
<line x1="481.39" y1="50.00" x2="481.39" y2="55.00" stroke="rgb(0,0,0)" stroke-width="1"/>
<line x1="481.39" y1="290.00" x2="481.39" y2="285.00" stroke="rgb(0,0,0)" stroke-width="1"/>
<line x1="491.73" y1="50.00" x2="491.73" y2="55.00" stroke="rgb(0,0,0)" stroke-width="1"/>
<line x1="491.73" y1="290.00" x2="491.73" y2="285.00" stroke="rgb(0,0,0)" stroke-width="1"/>
<line x1="502.07" y1="50.00" x2="502.07" y2="55.00" stroke="rgb(0,0,0)" stroke-width="1"/>
<line x1="502.07" y1="290.00" x2="502.07" y2="285.00" stroke="rgb(0,0,0)" stroke-width="1"/>
<line x1="460.71" y1="50.00" x2="460.71" y2="65.00" stroke="rgb(0,0,0)" stroke-width="1"/>
<text x="460.71" y="305.00" text-anchor="middle" font-size="12" font-family="georgia">2.50</text>
<line x1="460.71" y1="290.00" x2="460.71" y2="275.00" stroke="rgb(0,0,0)" stroke-width="1"/>
<line x1="522.76" y1="50.00" x2="522.76" y2="55.00" stroke="rgb(0,0,0)" stroke-width="1"/>
<line x1="522.76" y1="290.00" x2="522.76" y2="285.00" stroke="rgb(0,0,0)" stroke-width="1"/>
<line x1="512.41" y1="50.00" x2="512.41" y2="65.00" stroke="rgb(0,0,0)" stroke-width="1"/>
<text x="512.41" y="305.00" text-anchor="middle" font-size="12" font-family="georgia">2.51</text>
<line x1="512.41" y1="290.00" x2="512.41" y2="275.00" stroke="rgb(0,0,0)" stroke-width="1"/>
<text x="345.00" y="90.00" text-anchor="middle" font-size="24" font-family="georgia">Z width</text>
<text x="345.00" y="330.00" text-anchor="middle" font-size="24" font-family="georgia">Width (GeV)</text>
</svg>